<?xml version="1.0" encoding="UTF-8" standalone="no"?>
<svg
   xmlns:dc="http://purl.org/dc/elements/1.1/"
   xmlns:cc="http://creativecommons.org/ns#"
   xmlns:rdf="http://www.w3.org/1999/02/22-rdf-syntax-ns#"
   xmlns:svg="http://www.w3.org/2000/svg"
   xmlns="http://www.w3.org/2000/svg"
   xmlns:sodipodi="http://sodipodi.sourceforge.net/DTD/sodipodi-0.dtd"
   xmlns:inkscape="http://www.inkscape.org/namespaces/inkscape"
   width="63.627464mm"
   height="18.287216mm"
   viewBox="0 0 63.627464 18.287216"
   version="1.1"
   id="svg8"
   inkscape:version="1.0.2 (e86c870879, 2021-01-15)"
   sodipodi:docname="logo.svg">
  <defs
     id="defs2">
    <rect
       x="44.601192"
       y="15.497024"
       width="57.22625"
       height="18.054403"
       id="rect12" />
  </defs>
  <sodipodi:namedview
     id="base"
     pagecolor="#ffffff"
     bordercolor="#666666"
     borderopacity="1.0"
     inkscape:pageopacity="0.0"
     inkscape:pageshadow="2"
     inkscape:zoom="2.8"
     inkscape:cx="214.13621"
     inkscape:cy="44.026348"
     inkscape:document-units="mm"
     inkscape:current-layer="layer1"
     inkscape:document-rotation="0"
     showgrid="false"
     showguides="false"
     fit-margin-top="0"
     fit-margin-left="0"
     fit-margin-right="0"
     fit-margin-bottom="0"
     inkscape:window-width="1920"
     inkscape:window-height="1017"
     inkscape:window-x="-8"
     inkscape:window-y="-8"
     inkscape:window-maximized="1" />
  <metadata
     id="metadata5">
    <rdf:RDF>
      <cc:Work
         rdf:about="">
        <dc:format>image/svg+xml</dc:format>
        <dc:type
           rdf:resource="http://purl.org/dc/dcmitype/StillImage" />
        <dc:title></dc:title>
      </cc:Work>
    </rdf:RDF>
  </metadata>
  <g
     inkscape:label="Warstwa 1"
     inkscape:groupmode="layer"
     id="layer1"
     transform="translate(-33.039294,-14.578593)">
    <text
       xml:space="preserve"
       id="text10"
       style="font-style:normal;font-variant:normal;font-weight:normal;font-stretch:normal;font-size:14.1111px;line-height:1.25;font-family:'Bradley Hand ITC';-inkscape-font-specification:'Bradley Hand ITC';white-space:pre;shape-inside:url(#rect12);fill:#000080;fill-opacity:1;stroke:none;"
       transform="matrix(1.1181373,0,0,1.2159731,-5.2918309,-4.9149912)"><tspan
         x="44.601562"
         y="27.446187"><tspan
           style="font-style:normal;font-variant:normal;font-weight:normal;font-stretch:normal;font-size:14.1111px;font-family:'Freestyle Script';-inkscape-font-specification:'Freestyle Script';fill:#000080">Turniejownik</tspan></tspan></text>
    <path
       style="fill:#ffcc00;stroke-width:0.180909"
       id="path90"
       d="m 33.039304,14.875804 c 0.02033,0.715805 0.01959,1.432069 0.02273,2.148098 0.01264,0.760919 -0.01268,1.523305 0.05746,2.282437 0.04407,0.476934 0.08384,0.664444 0.161893,1.134185 0.132565,0.689976 0.337945,1.3641 0.635612,2.005892 0.179561,0.387143 0.283082,0.547175 0.497245,0.91795 0.550401,0.862263 1.197679,1.672461 1.947988,2.385269 0.163528,0.155356 0.336414,0.301439 0.504623,0.452158 0.706717,0.614799 1.481071,1.153905 2.280092,1.653072 0.287334,0.179506 0.887548,0.532479 1.181747,0.706626 0.921097,0.540576 1.856615,1.058588 2.792415,1.575486 0.295678,0.161783 0.591923,0.322604 0.887189,0.485071 0,0 0.573025,-0.357165 0.573025,-0.357165 v 0 C 44.276349,30.108757 43.9694,29.956142 43.665639,29.79782 c -0.955476,-0.494776 -1.901104,-1.007914 -2.82788,-1.550442 -1.20488,-0.708143 -2.414256,-1.42564 -3.455393,-2.349775 -0.166724,-0.150275 -0.337869,-0.296186 -0.500171,-0.450823 -0.745686,-0.710476 -1.386953,-1.51656 -1.925061,-2.380777 -0.210993,-0.366497 -0.315804,-0.52965 -0.492773,-0.91207 -0.294792,-0.637036 -0.501756,-1.306489 -0.635367,-1.990775 -0.08049,-0.477337 -0.117484,-0.642538 -0.161967,-1.127682 -0.06974,-0.760617 -0.04374,-1.524315 -0.04046,-2.286635 0.0031,-0.723415 0.0026,-1.447052 0.02273,-2.170248 0,0 -0.610003,0.297211 -0.610003,0.297211 z" />
    <path
       style="fill:#ffcc00;stroke-width:0.176425"
       id="path90-5"
       d="m 44.999613,14.875804 c -0.01933,0.715805 -0.01863,1.432069 -0.02162,2.148098 -0.01203,0.760919 0.01205,1.523305 -0.05465,2.282437 -0.04191,0.476934 -0.07973,0.664444 -0.153968,1.134185 -0.126076,0.689976 -0.321402,1.3641 -0.604496,2.005892 -0.170771,0.387143 -0.269225,0.547175 -0.472904,0.91795 -0.523457,0.862263 -1.139048,1.672461 -1.852627,2.385269 -0.155523,0.155356 -0.319945,0.301439 -0.47992,0.452158 -0.672121,0.614799 -1.408567,1.153905 -2.168473,1.653072 -0.273268,0.179506 -0.844099,0.532479 -1.123896,0.706626 -0.876005,0.540576 -1.765727,1.058588 -2.655716,1.575486 -0.281204,0.161783 -0.562946,0.322604 -0.843758,0.485071 0,0 -0.544973,-0.357165 -0.544973,-0.357165 v 0 c 0.290044,-0.156126 0.581967,-0.308741 0.870858,-0.467063 0.908702,-0.494776 1.808038,-1.007914 2.689445,-1.550442 1.145897,-0.708143 2.296069,-1.42564 3.286239,-2.349775 0.158562,-0.150275 0.321329,-0.296186 0.475685,-0.450823 0.709182,-0.710476 1.319057,-1.51656 1.830823,-2.380777 0.200664,-0.366497 0.300344,-0.52965 0.468649,-0.91207 0.280361,-0.637036 0.477194,-1.306489 0.604264,-1.990775 0.07655,-0.477337 0.111732,-0.642538 0.154038,-1.127682 0.06633,-0.760617 0.0416,-1.524315 0.03848,-2.286635 -0.003,-0.723415 -0.0024,-1.447052 -0.02162,-2.170248 0,0 0.580141,0.297211 0.580141,0.297211 z" />
    <path
       style="fill:#ffcc00;stroke-width:0.180909"
       id="path290"
       d="m 34.106848,16.149813 c 0.453026,-0.0093 0.906254,-0.0083 1.359368,-0.007 0.338155,0.0013 0.676303,0.0035 1.014462,0.004 0.283396,8.5e-5 0.566793,3.3e-5 0.850191,-4.42e-4 0.275085,4.78e-4 0.550169,8.7e-4 0.825256,3.9e-4 0.343845,-3.19e-4 0.687686,-0.0021 1.031533,-0.0021 0.340451,-6.8e-5 0.6809,0.0013 1.021352,0.0015 0.279389,4.24e-4 0.558778,3.71e-4 0.838169,9.36e-4 0.225144,2.47e-4 0.450288,8.02e-4 0.675432,0.001 0.203617,6.2e-5 0.407233,2.12e-4 0.610852,-1.37e-4 0.224618,-8.69e-4 0.449235,-6.9e-5 0.673853,-2.9e-5 0.172974,3.89e-4 0.345948,6.69e-4 0.51892,0.0014 0,0 0.559138,-0.388462 0.559138,-0.388462 v 0 c -0.174339,7.36e-4 -0.34868,0.0011 -0.523019,0.0014 -0.224591,4e-5 -0.449181,8.02e-4 -0.673771,-2.9e-5 -0.203487,-3.55e-4 -0.406972,-1.95e-4 -0.610459,-1.37e-4 -0.226137,2.48e-4 -0.452273,8.03e-4 -0.67841,10e-4 -0.280276,5.49e-4 -0.560553,4.96e-4 -0.840829,9.36e-4 -0.341916,2.3e-4 -0.683834,0.0016 -1.025752,0.0015 -0.341889,1.6e-5 -0.68377,-0.0017 -1.025659,-0.0021 -0.275456,-4.95e-4 -0.550914,-8e-5 -0.82637,3.9e-4 -0.282977,-4.79e-4 -0.565952,-5.13e-4 -0.848928,-4.43e-4 -0.341989,4.95e-4 -0.683968,0.0026 -1.025953,0.004 -0.446412,0.0013 -0.892952,0.0025 -1.339275,-0.007 0,0 -0.560101,0.389133 -0.560101,0.389133 z" />
  </g>
</svg>
