<?xml version="1.0" encoding="UTF-8" standalone="no"?>
<svg
   xmlns:dc="http://purl.org/dc/elements/1.1/"
   xmlns:cc="http://creativecommons.org/ns#"
   xmlns:rdf="http://www.w3.org/1999/02/22-rdf-syntax-ns#"
   xmlns:svg="http://www.w3.org/2000/svg"
   xmlns="http://www.w3.org/2000/svg"
   xmlns:sodipodi="http://sodipodi.sourceforge.net/DTD/sodipodi-0.dtd"
   xmlns:inkscape="http://www.inkscape.org/namespaces/inkscape"
   width="63.627464mm"
   height="18.287216mm"
   viewBox="0 0 63.627464 18.287216"
   version="1.1"
   id="svg8"
   inkscape:version="1.0.2 (e86c870879, 2021-01-15)"
   sodipodi:docname="logo_with_text.svg">
  <defs
     id="defs2">
    <rect
       x="44.601192"
       y="15.497024"
       width="57.22625"
       height="18.054403"
       id="rect12" />
  </defs>
  <sodipodi:namedview
     id="base"
     pagecolor="#ffffff"
     bordercolor="#666666"
     borderopacity="1.0"
     inkscape:pageopacity="0.0"
     inkscape:pageshadow="2"
     inkscape:zoom="2.8"
     inkscape:cx="112.52907"
     inkscape:cy="44.026348"
     inkscape:document-units="mm"
     inkscape:current-layer="layer1"
     inkscape:document-rotation="0"
     showgrid="false"
     showguides="false"
     fit-margin-top="0"
     fit-margin-left="0"
     fit-margin-right="0"
     fit-margin-bottom="0"
     inkscape:window-width="1920"
     inkscape:window-height="1017"
     inkscape:window-x="-8"
     inkscape:window-y="-8"
     inkscape:window-maximized="1" />
  <metadata
     id="metadata5">
    <rdf:RDF>
      <cc:Work
         rdf:about="">
        <dc:format>image/svg+xml</dc:format>
        <dc:type
           rdf:resource="http://purl.org/dc/dcmitype/StillImage" />
        <dc:title></dc:title>
      </cc:Work>
    </rdf:RDF>
  </metadata>
  <g
     inkscape:label="Warstwa 1"
     inkscape:groupmode="layer"
     id="layer1"
     transform="translate(-33.039294,-14.578593)">
    <g
       aria-label="Turniejownik"
       transform="matrix(1.1181373,0,0,1.2159731,-5.2918309,-4.9149912)"
       id="text10"
       style="font-style:normal;font-variant:normal;font-weight:normal;font-stretch:normal;font-size:14.1111px;line-height:1.25;font-family:'Bradley Hand ITC';-inkscape-font-specification:'Bradley Hand ITC';white-space:pre;shape-inside:url(#rect12);fill:#000080;fill-opacity:1;stroke:none;image-rendering:auto">
      <path
         d="m 49.672739,19.067721 q -1.378037,0.213596 -2.556259,0.544325 -0.248046,0.08957 -0.38585,0.08957 -0.158474,0 -0.268717,-0.144694 -0.0689,-0.08268 -0.0689,-0.192925 0,-0.296278 0.427191,-0.434082 1.143771,-0.344509 2.694063,-0.633897 1.943032,-0.351399 3.73448,-0.351399 0.606337,0 0.813042,0.07579 0.192926,0.0689 0.192926,0.261827 0,0.323839 -0.475423,0.37896 -0.413411,0.04134 -1.247124,0.06201 -1.660535,0.05512 -2.273761,0.206705 0.172255,0.0689 0.172255,0.213596 0,0.151584 -0.220486,0.475423 -1.309136,1.915472 -2.501138,4.347707 -0.909504,1.84657 -1.329806,3.279728 -0.09646,0.434082 -0.330729,0.434082 -0.213595,0 -0.358289,-0.220486 -0.09646,-0.144694 -0.09646,-0.303168 0,-0.633897 1.205783,-3.086803 0.771701,-1.577853 1.426268,-2.659612 0.261827,-0.440972 1.260904,-2.046385 z"
         style="font-style:normal;font-variant:normal;font-weight:normal;font-stretch:normal;font-size:14.1111px;font-family:'Freestyle Script';-inkscape-font-specification:'Freestyle Script';fill:#000080"
         id="path38" />
      <path
         d="m 52.490825,25.854554 q -0.296278,0.413411 -0.523654,0.661458 -0.399631,0.440972 -0.792372,0.440972 -0.337619,0 -0.523654,-0.303168 -0.130913,-0.213596 -0.130913,-0.509874 0,-0.888834 0.75792,-2.039495 0.3514,-0.537435 0.695909,-0.819932 0.268717,-0.227376 0.440972,-0.227376 0.09646,0 0.179145,0.08268 0.0689,0.07579 0.0689,0.151584 0,0.130913 -0.254937,0.427191 -0.571886,0.682129 -0.868164,1.254014 -0.344509,0.668348 -0.344509,1.047308 0,0.09646 0.04134,0.151585 0.04823,0.04823 0.130914,0.04823 0.351399,0 0.978406,-1.005967 0.323839,-0.523654 0.558105,-1.157551 0.124023,-0.34451 0.323839,-0.613227 0.192925,-0.241156 0.37896,-0.241156 0.103353,0 0.186035,0.08957 0.08957,0.09646 0.08957,0.213596 0,0.248046 -0.475422,1.11621 -0.323839,0.599446 -0.323839,0.999077 0,0.427191 0.227376,0.730359 0.06201,0.08268 0.37896,0.261827 0.151584,0.08957 0.151584,0.289388 0,0.124024 -0.110243,0.213596 -0.103352,0.08957 -0.254937,0.08957 -0.344509,0 -0.627006,-0.275607 -0.254937,-0.248047 -0.323839,-0.716579 -0.01378,-0.06201 -0.03445,-0.35829 z"
         style="font-style:normal;font-variant:normal;font-weight:normal;font-stretch:normal;font-size:14.1111px;font-family:'Freestyle Script';-inkscape-font-specification:'Freestyle Script';fill:#000080"
         id="path40" />
      <path
         d="m 55.488056,24.641881 q 0.675238,-0.723469 1.557182,-1.412488 0.316948,-0.248046 0.675238,-0.461642 0.179145,-0.103353 0.227376,-0.103353 0.103353,0 0.206706,0.151584 0.06201,0.08268 0.06201,0.151584 0,0.124024 -0.261827,0.337619 -0.702799,0.558105 -0.702799,0.840603 0,0.158474 0.179145,0.158474 0.296278,0 1.019748,-0.489203 0.124023,-0.08268 0.206705,-0.08268 0.05512,0 0.110243,0.05512 0.06201,0.06201 0.06201,0.130914 0,0.206705 -0.578776,0.633897 -0.606336,0.454752 -1.150661,0.454752 -0.220486,0 -0.406521,-0.117133 -0.158474,-0.09646 -0.158474,-0.344509 0,-0.172255 0.144694,-0.392741 -0.544325,0.385851 -1.281575,1.322916 -0.427191,0.578775 -0.847493,1.426268 -0.158474,0.316949 -0.39274,0.316949 -0.254937,0 -0.254937,-0.241157 0,-0.234266 0.399631,-1.254014 0.592556,-1.51584 1.240233,-2.349553 0.399631,-0.516764 0.668348,-0.516764 0.08957,0 0.165365,0.05512 0.08957,0.0689 0.08957,0.172254 0,0.103353 -0.137804,0.289388 -0.02756,0.03445 -0.365179,0.461643 -0.310059,0.406521 -0.475423,0.806151 z"
         style="font-style:normal;font-variant:normal;font-weight:normal;font-stretch:normal;font-size:14.1111px;font-family:'Freestyle Script';-inkscape-font-specification:'Freestyle Script';fill:#000080"
         id="path42" />
      <path
         d="m 59.821983,24.545419 q 0.08957,-0.08268 0.172254,-0.165365 1.440049,-1.405598 1.929252,-1.405598 0.268717,0 0.268717,0.296278 0,0.206706 -0.241156,0.489204 -1.316026,1.536511 -1.316026,2.707843 0,0.37896 0.206706,0.723469 0.09646,0.158474 0.09646,0.248047 0,0.08268 -0.08268,0.158474 -0.08957,0.09646 -0.213595,0.09646 -0.282498,0 -0.475423,-0.35829 -0.186035,-0.337619 -0.186035,-0.819932 0,-0.930175 0.702799,-2.060166 -0.937065,0.599446 -1.743217,2.122177 -0.206706,0.36518 -0.440972,0.36518 -0.117133,0 -0.192925,-0.08268 -0.09646,-0.09646 -0.09646,-0.248047 0,-0.37207 0.847493,-1.949922 0.454752,-0.854383 0.716579,-1.240234 0.261827,-0.37896 0.447862,-0.37896 0.08957,0 0.172255,0.08268 0.09646,0.09646 0.09646,0.220486 0,0.151584 -0.199816,0.434082 -0.289388,0.420301 -0.468532,0.764811 z"
         style="font-style:normal;font-variant:normal;font-weight:normal;font-stretch:normal;font-size:14.1111px;font-family:'Freestyle Script';-inkscape-font-specification:'Freestyle Script';fill:#000080"
         id="path44" />
      <path
         d="m 63.983654,22.781531 q 0.117133,0 0.192925,0.08957 0.05512,0.07579 0.05512,0.151584 0,0.124023 -0.199815,0.413411 -0.71658,1.10932 -1.019748,1.825899 -0.323839,0.73725 -0.571885,1.515841 -0.110243,0.344509 -0.34451,0.344509 -0.137803,0 -0.220486,-0.110243 -0.07579,-0.08957 -0.07579,-0.192925 0,-0.206706 0.440972,-1.378037 0.34451,-0.923285 1.11621,-2.039495 0.248047,-0.36518 0.37207,-0.489203 0.124024,-0.130914 0.254937,-0.130914 z m 1.309135,-2.556259 q 0.310059,0 0.310059,0.316949 0,0.289388 -0.303168,0.640787 -0.289388,0.337619 -0.558105,0.337619 -0.130914,0 -0.213596,-0.09646 -0.08268,-0.08957 -0.08268,-0.220486 0,-0.330729 0.365179,-0.702799 0.268718,-0.275608 0.482313,-0.275608 z"
         style="font-style:normal;font-variant:normal;font-weight:normal;font-stretch:normal;font-size:14.1111px;font-family:'Freestyle Script';-inkscape-font-specification:'Freestyle Script';fill:#000080"
         id="path46" />
      <path
         d="m 64.576212,25.585837 v 0.124023 q 0,0.151584 0.07579,0.261827 0.172254,0.254937 0.564995,0.254937 0.861273,0 1.991264,-1.322916 0.199815,-0.227376 0.337619,-0.227376 0.07579,0 0.137803,0.07579 0.04134,0.05512 0.04134,0.103353 0,0.268717 -0.661457,0.909505 -0.516764,0.502983 -1.10243,0.819932 -0.585666,0.316948 -1.088649,0.316948 -0.516764,0 -0.813042,-0.358289 -0.199816,-0.248047 -0.199816,-0.675239 0,-1.164441 1.09554,-2.280651 0.888834,-0.909505 1.550292,-0.909505 0.179144,0 0.323838,0.110243 0.179145,0.144694 0.179145,0.378961 0,0.365179 -0.337619,0.895724 -0.695909,1.102429 -2.094616,1.522731 z m 0.151584,-0.537435 q 0.482313,-0.165364 0.75792,-0.37207 0.482313,-0.37207 0.764811,-0.840602 0.103353,-0.165365 0.103353,-0.296278 0,-0.137804 -0.130914,-0.137804 -0.179145,0 -0.509874,0.268717 -0.592556,0.475423 -0.985296,1.378037 z"
         style="font-style:normal;font-variant:normal;font-weight:normal;font-stretch:normal;font-size:14.1111px;font-family:'Freestyle Script';-inkscape-font-specification:'Freestyle Script';fill:#000080"
         id="path48" />
      <path
         d="m 67.842159,26.970764 0.137804,-0.289388 0.420301,-0.888834 q 0.861273,-1.85346 1.123101,-2.321992 0.40652,-0.72347 0.730359,-0.72347 0.103353,0 0.192925,0.08268 0.08268,0.08957 0.08268,0.172255 0,0.124023 -0.413412,0.716579 -0.254936,0.37207 -0.76481,1.371147 -0.406521,0.819932 -0.592556,1.288465 0.523654,-0.351399 0.861273,-0.689018 0.392741,-0.385851 0.764811,-0.971517 0.172254,-0.261827 0.310058,-0.261827 0.07579,0 0.130914,0.06201 0.06201,0.0689 0.06201,0.151584 0,0.234266 -0.289388,0.640787 -0.709689,1.026638 -2.23242,1.894801 -0.144694,0.234267 -0.461642,0.950846 -0.558105,1.267794 -1.143771,2.046385 -0.323839,0.420301 -0.778591,0.689019 -0.303168,0.179145 -0.633897,0.179145 -0.38585,0 -0.647677,-0.303169 -0.165365,-0.192925 -0.165365,-0.475422 0,-0.72347 0.73725,-1.591633 0.895724,-1.061089 2.570039,-1.729437 z m -0.38585,0.73036 q -0.647678,0.248046 -1.391818,0.964626 -0.868163,0.819932 -0.868163,1.433158 0,0.144694 0.0689,0.213596 0.0689,0.07579 0.199815,0.07579 0.289388,0 0.613227,-0.323839 0.537434,-0.523654 1.378037,-2.363333 z m 4.051429,-7.441401 q 0.310058,0 0.310058,0.316949 0,0.289388 -0.303168,0.640787 -0.289388,0.337619 -0.558105,0.337619 -0.130913,0 -0.220486,-0.09646 -0.07579,-0.08957 -0.07579,-0.227377 0,-0.323838 0.36518,-0.695908 0.268717,-0.275608 0.482313,-0.275608 z"
         style="font-style:normal;font-variant:normal;font-weight:normal;font-stretch:normal;font-size:14.1111px;font-family:'Freestyle Script';-inkscape-font-specification:'Freestyle Script';fill:#000080"
         id="path50" />
      <path
         d="m 73.705707,22.464583 q 0.564996,0 0.564996,0.689018 0,0.916395 -0.847493,2.321993 -0.923285,1.522731 -1.784558,1.522731 -0.399631,0 -0.585666,-0.37207 -0.09646,-0.186035 -0.09646,-0.447862 0,-0.881944 0.606337,-1.915472 0.564995,-0.957736 1.329805,-1.48828 0.447862,-0.310058 0.813042,-0.310058 z m -0.716579,2.60449 q -0.172255,-0.137804 -0.172255,-0.213596 0,-0.05512 0.220486,-0.303168 0.620117,-0.695909 0.620117,-1.1231 0,-0.05512 -0.03445,-0.110243 -0.05512,-0.103353 -0.172255,-0.103353 -0.220486,0 -0.647677,0.427191 -0.551215,0.551215 -0.840603,1.136881 -0.337619,0.668348 -0.337619,1.10932 0,0.117133 0.06201,0.206705 0.08957,0.124024 0.227376,0.124024 0.330729,0 0.709689,-0.496094 0.165365,-0.206705 0.268717,-0.427191 0.103353,-0.220486 0.09646,-0.227376 z"
         style="font-style:normal;font-variant:normal;font-weight:normal;font-stretch:normal;font-size:14.1111px;font-family:'Freestyle Script';-inkscape-font-specification:'Freestyle Script';fill:#000080"
         id="path52" />
      <path
         d="m 76.716717,24.986391 q -0.592556,0.799261 -0.875054,1.102429 -0.351399,0.378961 -0.606336,0.578776 -0.289388,0.213596 -0.537434,0.213596 -0.241157,0 -0.372071,-0.241157 Q 74.22247,26.454 74.22247,26.226624 q 0,-0.75103 0.895724,-2.067056 0.813042,-1.192002 1.205782,-1.192002 0.09646,0 0.186035,0.08957 0.08268,0.08268 0.08268,0.192925 0,0.151584 -0.268718,0.420301 -0.571885,0.564995 -0.992186,1.274684 -0.35829,0.606337 -0.35829,0.792372 0,0.137804 0.124023,0.137804 0.413411,0 1.791449,-1.791449 0.447862,-0.578775 0.544324,-0.668348 0.179145,-0.165364 0.36518,-0.165364 0.124023,0 0.213596,0.0689 0.07579,0.0689 0.07579,0.144694 0,0.08268 -0.330729,0.695908 -0.75103,1.322916 -0.75103,1.784558 0,0.179145 0.144694,0.179145 0.248046,0 0.682128,-0.571885 0.413411,-0.537435 0.764811,-1.364257 0.151584,-0.35829 0.268717,-0.943955 0.137804,-0.668348 0.551215,-0.668348 0.234266,0 0.234266,0.261827 0,0.902614 -1.005967,2.480467 -1.047308,1.646754 -1.763888,1.646754 -0.530544,0 -0.530544,-0.654568 0,-0.537434 0.36518,-1.322915 z"
         style="font-style:normal;font-variant:normal;font-weight:normal;font-stretch:normal;font-size:14.1111px;font-family:'Freestyle Script';-inkscape-font-specification:'Freestyle Script';fill:#000080"
         id="path54" />
      <path
         d="m 80.926621,24.545419 q 0.08957,-0.08268 0.172254,-0.165365 1.440049,-1.405598 1.929252,-1.405598 0.268718,0 0.268718,0.296278 0,0.206706 -0.241157,0.489204 -1.316025,1.536511 -1.316025,2.707843 0,0.37896 0.206705,0.723469 0.09646,0.158474 0.09646,0.248047 0,0.08268 -0.08268,0.158474 -0.08957,0.09646 -0.213596,0.09646 -0.282498,0 -0.475423,-0.35829 -0.186035,-0.337619 -0.186035,-0.819932 0,-0.930175 0.702799,-2.060166 -0.937065,0.599446 -1.743217,2.122177 -0.206706,0.36518 -0.440972,0.36518 -0.117133,0 -0.192925,-0.08268 -0.09646,-0.09646 -0.09646,-0.248047 0,-0.37207 0.847493,-1.949922 0.454752,-0.854383 0.716579,-1.240234 0.261827,-0.37896 0.447862,-0.37896 0.08957,0 0.172255,0.08268 0.09646,0.09646 0.09646,0.220486 0,0.151584 -0.199816,0.434082 -0.289388,0.420301 -0.468532,0.764811 z"
         style="font-style:normal;font-variant:normal;font-weight:normal;font-stretch:normal;font-size:14.1111px;font-family:'Freestyle Script';-inkscape-font-specification:'Freestyle Script';fill:#000080"
         id="path56" />
      <path
         d="m 85.088291,22.781531 q 0.117134,0 0.192926,0.08957 0.05512,0.07579 0.05512,0.151584 0,0.124023 -0.199815,0.413411 -0.71658,1.10932 -1.019748,1.825899 -0.323839,0.73725 -0.571885,1.515841 -0.110243,0.344509 -0.34451,0.344509 -0.137803,0 -0.220485,-0.110243 -0.07579,-0.08957 -0.07579,-0.192925 0,-0.206706 0.440971,-1.378037 0.34451,-0.923285 1.11621,-2.039495 0.248047,-0.36518 0.37207,-0.489203 0.124024,-0.130914 0.254937,-0.130914 z m 1.309136,-2.556259 q 0.310058,0 0.310058,0.316949 0,0.289388 -0.303168,0.640787 -0.289388,0.337619 -0.558105,0.337619 -0.130914,0 -0.213596,-0.09646 -0.08268,-0.08957 -0.08268,-0.220486 0,-0.330729 0.36518,-0.702799 0.268717,-0.275608 0.482313,-0.275608 z"
         style="font-style:normal;font-variant:normal;font-weight:normal;font-stretch:normal;font-size:14.1111px;font-family:'Freestyle Script';-inkscape-font-specification:'Freestyle Script';fill:#000080"
         id="path58" />
      <path
         d="m 87.96839,23.959753 q -0.447862,1.10932 -0.447862,1.688095 0,0.282498 0.110243,0.468533 0.137804,0.234266 0.36518,0.234266 0.468533,0 1.081759,-0.627007 0.406521,-0.39963 0.682129,-0.813041 0.179144,-0.275608 0.337619,-0.275608 0.158474,0 0.158474,0.158474 0,0.261827 -0.633897,1.074869 -0.937065,1.205783 -1.819009,1.205783 -0.530544,0 -0.75103,-0.516764 -0.165365,-0.37896 -0.165365,-0.799262 0,-0.351399 0.165365,-1.040418 -0.447862,0.37207 -1.357367,1.819009 -0.241156,0.392741 -0.440972,0.392741 -0.103353,0 -0.179145,-0.08957 -0.07579,-0.09646 -0.07579,-0.192926 0,-0.275607 0.72347,-1.839679 1.274684,-2.735404 2.728513,-4.602644 0.785482,-1.019748 1.412488,-1.48828 0.564996,-0.427192 0.902615,-0.427192 0.151584,0 0.268717,0.124023 0.151584,0.151585 0.151584,0.372071 0,0.585665 -0.613226,1.50206 -0.640788,0.943955 -2.177299,2.280651 -0.861273,0.74414 -1.550292,1.171332 -0.08957,0.179145 -0.502983,1.047308 0.861273,-0.930175 1.364256,-1.281574 0.323839,-0.220486 0.875054,-0.461643 0.37207,-0.158474 0.537434,-0.158474 0.08957,0 0.158475,0.0689 0.07579,0.06201 0.07579,0.165364 0,0.227376 -0.310059,0.316949 -0.523654,0.158474 -1.074869,0.523654 z m -0.592556,-1.185112 q 1.129991,-0.74414 2.108397,-1.894801 0.489203,-0.571885 0.785481,-1.10243 0.206706,-0.37207 0.206706,-0.530544 0,-0.158474 -0.144694,-0.158474 -0.38585,0 -1.329806,1.185112 -0.778591,0.985296 -1.626084,2.501137 z"
         style="font-style:normal;font-variant:normal;font-weight:normal;font-stretch:normal;font-size:14.1111px;font-family:'Freestyle Script';-inkscape-font-specification:'Freestyle Script';fill:#000080"
         id="path60" />
    </g>
    <path
       style="fill:#ffcc00;stroke-width:0.180909"
       id="path90"
       d="m 33.039304,14.875804 c 0.02033,0.715805 0.01959,1.432069 0.02273,2.148098 0.01264,0.760919 -0.01268,1.523305 0.05746,2.282437 0.04407,0.476934 0.08384,0.664444 0.161893,1.134185 0.132565,0.689976 0.337945,1.3641 0.635612,2.005892 0.179561,0.387143 0.283082,0.547175 0.497245,0.91795 0.550401,0.862263 1.197679,1.672461 1.947988,2.385269 0.163528,0.155356 0.336414,0.301439 0.504623,0.452158 0.706717,0.614799 1.481071,1.153905 2.280092,1.653072 0.287334,0.179506 0.887548,0.532479 1.181747,0.706626 0.921097,0.540576 1.856615,1.058588 2.792415,1.575486 0.295678,0.161783 0.591923,0.322604 0.887189,0.485071 0,0 0.573025,-0.357165 0.573025,-0.357165 v 0 C 44.276349,30.108757 43.9694,29.956142 43.665639,29.79782 c -0.955476,-0.494776 -1.901104,-1.007914 -2.82788,-1.550442 -1.20488,-0.708143 -2.414256,-1.42564 -3.455393,-2.349775 -0.166724,-0.150275 -0.337869,-0.296186 -0.500171,-0.450823 -0.745686,-0.710476 -1.386953,-1.51656 -1.925061,-2.380777 -0.210993,-0.366497 -0.315804,-0.52965 -0.492773,-0.91207 -0.294792,-0.637036 -0.501756,-1.306489 -0.635367,-1.990775 -0.08049,-0.477337 -0.117484,-0.642538 -0.161967,-1.127682 -0.06974,-0.760617 -0.04374,-1.524315 -0.04046,-2.286635 0.0031,-0.723415 0.0026,-1.447052 0.02273,-2.170248 0,0 -0.610003,0.297211 -0.610003,0.297211 z" />
    <path
       style="fill:#ffcc00;stroke-width:0.176425"
       id="path90-5"
       d="m 44.999613,14.875804 c -0.01933,0.715805 -0.01863,1.432069 -0.02162,2.148098 -0.01203,0.760919 0.01205,1.523305 -0.05465,2.282437 -0.04191,0.476934 -0.07973,0.664444 -0.153968,1.134185 -0.126076,0.689976 -0.321402,1.3641 -0.604496,2.005892 -0.170771,0.387143 -0.269225,0.547175 -0.472904,0.91795 -0.523457,0.862263 -1.139048,1.672461 -1.852627,2.385269 -0.155523,0.155356 -0.319945,0.301439 -0.47992,0.452158 -0.672121,0.614799 -1.408567,1.153905 -2.168473,1.653072 -0.273268,0.179506 -0.844099,0.532479 -1.123896,0.706626 -0.876005,0.540576 -1.765727,1.058588 -2.655716,1.575486 -0.281204,0.161783 -0.562946,0.322604 -0.843758,0.485071 0,0 -0.544973,-0.357165 -0.544973,-0.357165 v 0 c 0.290044,-0.156126 0.581967,-0.308741 0.870858,-0.467063 0.908702,-0.494776 1.808038,-1.007914 2.689445,-1.550442 1.145897,-0.708143 2.296069,-1.42564 3.286239,-2.349775 0.158562,-0.150275 0.321329,-0.296186 0.475685,-0.450823 0.709182,-0.710476 1.319057,-1.51656 1.830823,-2.380777 0.200664,-0.366497 0.300344,-0.52965 0.468649,-0.91207 0.280361,-0.637036 0.477194,-1.306489 0.604264,-1.990775 0.07655,-0.477337 0.111732,-0.642538 0.154038,-1.127682 0.06633,-0.760617 0.0416,-1.524315 0.03848,-2.286635 -0.003,-0.723415 -0.0024,-1.447052 -0.02162,-2.170248 0,0 0.580141,0.297211 0.580141,0.297211 z" />
    <path
       style="fill:#ffcc00;stroke-width:0.180909"
       id="path290"
       d="m 34.106848,16.149813 c 0.453026,-0.0093 0.906254,-0.0083 1.359368,-0.007 0.338155,0.0013 0.676303,0.0035 1.014462,0.004 0.283396,8.5e-5 0.566793,3.3e-5 0.850191,-4.42e-4 0.275085,4.78e-4 0.550169,8.7e-4 0.825256,3.9e-4 0.343845,-3.19e-4 0.687686,-0.0021 1.031533,-0.0021 0.340451,-6.8e-5 0.6809,0.0013 1.021352,0.0015 0.279389,4.24e-4 0.558778,3.71e-4 0.838169,9.36e-4 0.225144,2.47e-4 0.450288,8.02e-4 0.675432,0.001 0.203617,6.2e-5 0.407233,2.12e-4 0.610852,-1.37e-4 0.224618,-8.69e-4 0.449235,-6.9e-5 0.673853,-2.9e-5 0.172974,3.89e-4 0.345948,6.69e-4 0.51892,0.0014 0,0 0.559138,-0.388462 0.559138,-0.388462 v 0 c -0.174339,7.36e-4 -0.34868,0.0011 -0.523019,0.0014 -0.224591,4e-5 -0.449181,8.02e-4 -0.673771,-2.9e-5 -0.203487,-3.55e-4 -0.406972,-1.95e-4 -0.610459,-1.37e-4 -0.226137,2.48e-4 -0.452273,8.03e-4 -0.67841,10e-4 -0.280276,5.49e-4 -0.560553,4.96e-4 -0.840829,9.36e-4 -0.341916,2.3e-4 -0.683834,0.0016 -1.025752,0.0015 -0.341889,1.6e-5 -0.68377,-0.0017 -1.025659,-0.0021 -0.275456,-4.95e-4 -0.550914,-8e-5 -0.82637,3.9e-4 -0.282977,-4.79e-4 -0.565952,-5.13e-4 -0.848928,-4.43e-4 -0.341989,4.95e-4 -0.683968,0.0026 -1.025953,0.004 -0.446412,0.0013 -0.892952,0.0025 -1.339275,-0.007 0,0 -0.560101,0.389133 -0.560101,0.389133 z" />
  </g>
</svg>
